<svg xmlns="http://www.w3.org/2000/svg" viewBox="0 0 680 520"><defs><linearGradient id="g" x1="0" x2="1" y1="0" y2="1"><stop stop-color="#fff3ef"/><stop offset="1" stop-color="#f4fbf7"/></linearGradient><linearGradient id="p" x1="0" x2="1"><stop stop-color="#e99aaa"/><stop offset="1" stop-color="#f6cfbf"/></linearGradient></defs><rect width="680" height="520" rx="48" fill="url(#g)"/><circle cx="538" cy="128" r="74" fill="#fff0d7"/><circle cx="135" cy="390" r="96" fill="#eaf7f2"/><path d="M215 396c32-96 61-147 125-147s95 51 125 147" fill="#fff" stroke="#dd9a9f" stroke-width="8"/><circle cx="340" cy="188" r="73" fill="#f2c2ba"/><path d="M267 168c28-61 123-72 154 0 6 15 5 36-1 53-38-2-103-2-160 0-7-18-1-40 7-53z" fill="#514a4d"/><path d="M253 231h174c-8 60-43 93-87 93s-78-33-87-93z" fill="#fff"/><path d="M285 235c22 22 89 22 111 0" fill="none" stroke="#dc8b99" stroke-width="7" stroke-linecap="round"/><rect x="299" y="278" width="82" height="42" rx="20" fill="#f2c2ba"/><path d="M252 389c34-50 141-50 176 0" fill="#f8b5c0"/><path d="M329 356h22v74h-22zM304 382h72v22h-72z" fill="#fff"/><path d="M122 156c42-62 115-86 176-62" fill="none" stroke="#d98a99" stroke-width="9" stroke-linecap="round"/><path d="M498 312c54 18 85 54 94 105" fill="none" stroke="#9bc9bb" stroke-width="9" stroke-linecap="round"/><path d="M128 165c-8 24-17 45-34 64 24-6 48-7 71 0-17-17-29-38-37-64z" fill="url(#p)"/><g fill="#d98a99"><circle cx="535" cy="234" r="8"/><circle cx="562" cy="265" r="5"/><circle cx="507" cy="278" r="5"/></g></svg>
